<svg width="49" height="48" viewBox="0 0 49 48" fill="none" xmlns="http://www.w3.org/2000/svg">
<rect x="4.5" y="4" width="40" height="40" rx="20" fill="#E1E2E2"/>
<path fill-rule="evenodd" clip-rule="evenodd" d="M27.8008 11.6165C26.0681 10.6161 23.9334 10.6161 22.2008 11.6165L15.6764 15.3833C13.9438 16.3837 12.8764 18.2324 12.8764 20.2331V27.7667C12.8764 29.7674 13.9438 31.6161 15.6764 32.6165L22.2008 36.3833C23.9334 37.3836 26.0681 37.3836 27.8008 36.3833L34.3251 32.6165C36.0578 31.6161 37.1251 29.7674 37.1251 27.7667V20.233C37.1251 18.2324 36.0578 16.3837 34.3251 15.3833L27.8008 11.6165ZM25.0008 30.9999C28.8668 30.9999 32.0008 27.8659 32.0008 23.9999C32.0008 20.1339 28.8668 16.9999 25.0008 16.9999C21.1348 16.9999 18.0008 20.1339 18.0008 23.9999C18.0008 27.8659 21.1348 30.9999 25.0008 30.9999Z" fill="#010101"/>
<circle cx="24.9994" cy="23.9998" r="3.11111" fill="#010101"/>
<rect x="1" y="0.5" width="47" height="47" rx="23.5" stroke="url(#paint0_angular_1_6336)"/>
<defs>
<radialGradient id="paint0_angular_1_6336" cx="0" cy="0" r="1" gradientUnits="userSpaceOnUse" gradientTransform="translate(24.5 24) rotate(90) scale(24)">
<stop offset="0.0617363" stop-color="#FFE249"/>
<stop offset="0.217045" stop-color="#F35950"/>
<stop offset="0.441667" stop-color="#7C5BFF"/>
<stop offset="0.562007" stop-color="#1CE4FF"/>
<stop offset="0.948166" stop-color="#5FFF5C"/>
</radialGradient>
</defs>
</svg>
